<svg width="28" height="28" viewBox="0 0 28 28" fill="none" xmlns="http://www.w3.org/2000/svg">
<g clip-path="url(#clip0_35_1505)">
<path d="M14.0003 3.49999C13.072 3.49999 12.1818 3.86874 11.5254 4.52512C10.869 5.18149 10.5003 6.07173 10.5003 6.99999V11.6667C10.5003 12.5949 10.869 13.4852 11.5254 14.1415C12.1818 14.7979 13.072 15.1667 14.0003 15.1667C14.9285 15.1667 15.8188 14.7979 16.4752 14.1415C17.1315 13.4852 17.5003 12.5949 17.5003 11.6667V6.99999C17.5003 6.07173 17.1315 5.18149 16.4752 4.52512C15.8188 3.86874 14.9285 3.49999 14.0003 3.49999ZM14.0003 1.16666C14.7663 1.16666 15.5249 1.31754 16.2326 1.61069C16.9403 1.90385 17.5834 2.33353 18.1251 2.8752C18.6667 3.41688 19.0964 4.05994 19.3896 4.76767C19.6827 5.4754 19.8336 6.23395 19.8336 6.99999V11.6667C19.8336 13.2138 19.219 14.6975 18.1251 15.7914C17.0311 16.8854 15.5474 17.5 14.0003 17.5C12.4532 17.5 10.9695 16.8854 9.8755 15.7914C8.78153 14.6975 8.16695 13.2138 8.16695 11.6667V6.99999C8.16695 5.45289 8.78153 3.96916 9.8755 2.8752C10.9695 1.78124 12.4532 1.16666 14.0003 1.16666ZM3.56445 12.8333H5.91529C6.19796 14.7756 7.17047 16.5511 8.65489 17.8351C10.1393 19.1192 12.0364 19.8258 13.9991 19.8258C15.9618 19.8258 17.8589 19.1192 19.3433 17.8351C20.8278 16.5511 21.8003 14.7756 22.083 12.8333H24.435C24.1697 15.2002 23.108 17.4066 21.424 19.0908C19.7401 20.775 17.5338 21.8369 15.167 22.1025V26.8333H12.8336V22.1025C10.4666 21.8372 8.26003 20.7753 6.57582 19.0911C4.89162 17.4069 3.82977 15.2003 3.56445 12.8333Z" fill="#525560"/>
</g>
<defs>
<clipPath id="clip0_35_1505">
<rect width="28" height="28" fill="white"/>
</clipPath>
</defs>
</svg>
