<svg width="28" height="28" viewBox="0 0 28 28" fill="none" xmlns="http://www.w3.org/2000/svg">
<g clip-path="url(#clip0_3_1635)">
<path d="M14 3.49999C13.0718 3.49999 12.1815 3.86874 11.5252 4.52512C10.8688 5.18149 10.5 6.07173 10.5 6.99999V11.6667C10.5 12.5949 10.8688 13.4852 11.5252 14.1415C12.1815 14.7979 13.0718 15.1667 14 15.1667C14.9283 15.1667 15.8185 14.7979 16.4749 14.1415C17.1313 13.4852 17.5 12.5949 17.5 11.6667V6.99999C17.5 6.07173 17.1313 5.18149 16.4749 4.52512C15.8185 3.86874 14.9283 3.49999 14 3.49999ZM14 1.16666C14.7661 1.16666 15.5246 1.31754 16.2324 1.61069C16.9401 1.90385 17.5832 2.33353 18.1248 2.8752C18.6665 3.41688 19.0962 4.05994 19.3893 4.76767C19.6825 5.4754 19.8334 6.23395 19.8334 6.99999V11.6667C19.8334 13.2138 19.2188 14.6975 18.1248 15.7914C17.0309 16.8854 15.5471 17.5 14 17.5C12.4529 17.5 10.9692 16.8854 9.87525 15.7914C8.78129 14.6975 8.16671 13.2138 8.16671 11.6667V6.99999C8.16671 5.45289 8.78129 3.96916 9.87525 2.8752C10.9692 1.78124 12.4529 1.16666 14 1.16666ZM3.56421 12.8333H5.91504C6.19772 14.7756 7.17022 16.5511 8.65465 17.8351C10.1391 19.1192 12.0362 19.8258 13.9989 19.8258C15.9616 19.8258 17.8587 19.1192 19.3431 17.8351C20.8275 16.5511 21.8 14.7756 22.0827 12.8333H24.4347C24.1694 15.2002 23.1078 17.4066 21.4238 19.0908C19.7398 20.775 17.5335 21.8369 15.1667 22.1025V26.8333H12.8334V22.1025C10.4664 21.8372 8.25979 20.7753 6.57558 19.0911C4.89137 17.4069 3.82952 15.2003 3.56421 12.8333Z" fill="#B2B1B1"/>
</g>
<defs>
<clipPath id="clip0_3_1635">
<rect width="28" height="28" fill="white"/>
</clipPath>
</defs>
</svg>
