<svg width="28" height="28" viewBox="0 0 28 28" fill="none" xmlns="http://www.w3.org/2000/svg">
<g clip-path="url(#clip0_3_1629)">
<path d="M16.3334 15.75V9.33334C16.3334 8.09567 15.8417 6.90868 14.9666 6.03351C14.0914 5.15834 12.9044 4.66668 11.6667 4.66668C10.4291 4.66668 9.24209 5.15834 8.36692 6.03351C7.49175 6.90868 7.00008 8.09567 7.00008 9.33334V15.75C7.00008 17.7612 7.79904 19.6901 9.22119 21.1122C10.6433 22.5344 12.5722 23.3333 14.5834 23.3333C16.5946 23.3333 18.5235 22.5344 19.9456 21.1122C21.3678 19.6901 22.1667 17.7612 22.1667 15.75V4.66668H24.5001V15.75C24.5001 18.3801 23.4553 20.9024 21.5956 22.7622C19.7358 24.6219 17.2135 25.6667 14.5834 25.6667C11.9534 25.6667 9.43101 24.6219 7.57127 22.7622C5.71154 20.9024 4.66675 18.3801 4.66675 15.75V9.33334C4.66675 7.47683 5.40425 5.69635 6.717 4.3836C8.02976 3.07084 9.81023 2.33334 11.6667 2.33334C13.5233 2.33334 15.3037 3.07084 16.6165 4.3836C17.9292 5.69635 18.6667 7.47683 18.6667 9.33334V15.75C18.6667 16.833 18.2365 17.8716 17.4708 18.6374C16.705 19.4031 15.6664 19.8333 14.5834 19.8333C13.5004 19.8333 12.4618 19.4031 11.6961 18.6374C10.9303 17.8716 10.5001 16.833 10.5001 15.75V9.33334H12.8334V15.75C12.8334 16.2141 13.0178 16.6593 13.346 16.9874C13.6742 17.3156 14.1193 17.5 14.5834 17.5C15.0475 17.5 15.4927 17.3156 15.8209 16.9874C16.149 16.6593 16.3334 16.2141 16.3334 15.75Z" fill="#B2B1B1"/>
</g>
<defs>
<clipPath id="clip0_3_1629">
<rect width="28" height="28" fill="white"/>
</clipPath>
</defs>
</svg>
