<svg width="28" height="28" viewBox="0 0 28 28" fill="none" xmlns="http://www.w3.org/2000/svg">
<g clip-path="url(#clip0_35_1499)">
<path d="M16.3327 15.75V9.33334C16.3327 8.09567 15.841 6.90868 14.9658 6.03351C14.0907 5.15834 12.9037 4.66668 11.666 4.66668C10.4283 4.66668 9.24135 5.15834 8.36618 6.03351C7.49101 6.90868 6.99935 8.09567 6.99935 9.33334V15.75C6.99935 17.7612 7.7983 19.6901 9.22046 21.1122C10.6426 22.5344 12.5715 23.3333 14.5827 23.3333C16.5939 23.3333 18.5228 22.5344 19.9449 21.1122C21.3671 19.6901 22.166 17.7612 22.166 15.75V4.66668H24.4993V15.75C24.4993 18.3801 23.4546 20.9024 21.5948 22.7622C19.7351 24.6219 17.2127 25.6667 14.5827 25.6667C11.9526 25.6667 9.43028 24.6219 7.57054 22.7622C5.7108 20.9024 4.66602 18.3801 4.66602 15.75V9.33334C4.66602 7.47683 5.40351 5.69635 6.71627 4.3836C8.02902 3.07084 9.8095 2.33334 11.666 2.33334C13.5225 2.33334 15.303 3.07084 16.6158 4.3836C17.9285 5.69635 18.666 7.47683 18.666 9.33334V15.75C18.666 16.833 18.2358 17.8716 17.47 18.6374C16.7043 19.4031 15.6656 19.8333 14.5827 19.8333C13.4997 19.8333 12.4611 19.4031 11.6953 18.6374C10.9296 17.8716 10.4993 16.833 10.4993 15.75V9.33334H12.8327V15.75C12.8327 16.2141 13.0171 16.6593 13.3452 16.9874C13.6734 17.3156 14.1186 17.5 14.5827 17.5C15.0468 17.5 15.4919 17.3156 15.8201 16.9874C16.1483 16.6593 16.3327 16.2141 16.3327 15.75Z" fill="#525560"/>
</g>
<defs>
<clipPath id="clip0_35_1499">
<rect width="28" height="28" fill="white"/>
</clipPath>
</defs>
</svg>
