<svg width="28" height="28" viewBox="0 0 28 28" fill="none" xmlns="http://www.w3.org/2000/svg">
<g clip-path="url(#clip0_3_1632)">
<path d="M14 25.6667C7.55654 25.6667 2.33337 20.4435 2.33337 14C2.33337 7.55651 7.55654 2.33334 14 2.33334C20.4435 2.33334 25.6667 7.55651 25.6667 14C25.6667 20.4435 20.4435 25.6667 14 25.6667ZM14 23.3333C16.4754 23.3333 18.8494 22.35 20.5997 20.5997C22.35 18.8493 23.3334 16.4754 23.3334 14C23.3334 11.5247 22.35 9.15069 20.5997 7.40035C18.8494 5.65001 16.4754 4.66668 14 4.66668C11.5247 4.66668 9.15072 5.65001 7.40038 7.40035C5.65004 9.15069 4.66671 11.5247 4.66671 14C4.66671 16.4754 5.65004 18.8493 7.40038 20.5997C9.15072 22.35 11.5247 23.3333 14 23.3333ZM8.16671 14H10.5C10.5 14.9283 10.8688 15.8185 11.5252 16.4749C12.1815 17.1313 13.0718 17.5 14 17.5C14.9283 17.5 15.8185 17.1313 16.4749 16.4749C17.1313 15.8185 17.5 14.9283 17.5 14H19.8334C19.8334 15.5471 19.2188 17.0308 18.1248 18.1248C17.0309 19.2188 15.5471 19.8333 14 19.8333C12.4529 19.8333 10.9692 19.2188 9.87525 18.1248C8.78129 17.0308 8.16671 15.5471 8.16671 14Z" fill="#222020"/>
</g>
<defs>
<clipPath id="clip0_3_1632">
<rect width="28" height="28" fill="white"/>
</clipPath>
</defs>
</svg>
