<svg width="28" height="28" viewBox="0 0 28 28" fill="none" xmlns="http://www.w3.org/2000/svg">
<g clip-path="url(#clip0_35_1502)">
<path d="M14.0007 25.6667C7.55715 25.6667 2.33398 20.4435 2.33398 14C2.33398 7.55651 7.55715 2.33334 14.0007 2.33334C20.4442 2.33334 25.6673 7.55651 25.6673 14C25.6673 20.4435 20.4442 25.6667 14.0007 25.6667ZM14.0007 23.3333C16.476 23.3333 18.85 22.35 20.6003 20.5997C22.3507 18.8493 23.334 16.4754 23.334 14C23.334 11.5247 22.3507 9.15069 20.6003 7.40035C18.85 5.65001 16.476 4.66668 14.0007 4.66668C11.5253 4.66668 9.15133 5.65001 7.40099 7.40035C5.65065 9.15069 4.66732 11.5247 4.66732 14C4.66732 16.4754 5.65065 18.8493 7.40099 20.5997C9.15133 22.35 11.5253 23.3333 14.0007 23.3333ZM8.16732 14H10.5007C10.5007 14.9283 10.8694 15.8185 11.5258 16.4749C12.1822 17.1313 13.0724 17.5 14.0007 17.5C14.9289 17.5 15.8191 17.1313 16.4755 16.4749C17.1319 15.8185 17.5007 14.9283 17.5007 14H19.834C19.834 15.5471 19.2194 17.0308 18.1254 18.1248C17.0315 19.2188 15.5477 19.8333 14.0007 19.8333C12.4536 19.8333 10.9698 19.2188 9.87586 18.1248C8.7819 17.0308 8.16732 15.5471 8.16732 14Z" fill="#525560"/>
</g>
<defs>
<clipPath id="clip0_35_1502">
<rect width="28" height="28" fill="white"/>
</clipPath>
</defs>
</svg>
